<svg xmlns="http://www.w3.org/2000/svg" xmlns:xlink="http://www.w3.org/1999/xlink" version="1.1" class="marks" width="626" height="759" viewBox="0 0 626 759"><rect width="626" height="759" fill="white"/><g fill="none" stroke-miterlimit="10" transform="translate(220,22)"><g class="mark-group role-frame root" role="graphics-object" aria-roledescription="group mark container"><g transform="translate(0,0)"><path class="background" aria-hidden="true" d="M0.5,0.5h400v700h-400Z" stroke="#ddd"/><g><g class="mark-group role-axis" role="graphics-symbol" aria-roledescription="axis" aria-label="X-axis for a linear scale with values from 0 to 220,000"><g transform="translate(0.5,700.5)"><path class="background" aria-hidden="true" d="M0,0h0v0h0Z" pointer-events="none"/><g><g class="mark-rule role-axis-grid" pointer-events="none"><line transform="translate(0,0)" x2="0" y2="-700" stroke="#ddd" stroke-width="1" opacity="1"/><line transform="translate(36,0)" x2="0" y2="-700" stroke="#ddd" stroke-width="1" opacity="1"/><line transform="translate(73,0)" x2="0" y2="-700" stroke="#ddd" stroke-width="1" opacity="1"/><line transform="translate(109,0)" x2="0" y2="-700" stroke="#ddd" stroke-width="1" opacity="1"/><line transform="translate(145,0)" x2="0" y2="-700" stroke="#ddd" stroke-width="1" opacity="1"/><line transform="translate(182,0)" x2="0" y2="-700" stroke="#ddd" stroke-width="1" opacity="1"/><line transform="translate(218,0)" x2="0" y2="-700" stroke="#ddd" stroke-width="1" opacity="1"/><line transform="translate(255,0)" x2="0" y2="-700" stroke="#ddd" stroke-width="1" opacity="1"/><line transform="translate(291,0)" x2="0" y2="-700" stroke="#ddd" stroke-width="1" opacity="1"/><line transform="translate(327,0)" x2="0" y2="-700" stroke="#ddd" stroke-width="1" opacity="1"/><line transform="translate(364,0)" x2="0" y2="-700" stroke="#ddd" stroke-width="1" opacity="1"/><line transform="translate(400,0)" x2="0" y2="-700" stroke="#ddd" stroke-width="1" opacity="1"/></g></g><path class="foreground" aria-hidden="true" d="" pointer-events="none" display="none"/></g></g><g class="mark-group role-axis" role="graphics-symbol" aria-roledescription="axis" aria-label="X-axis titled 'counts' for a linear scale with values from 0 to 220,000"><g transform="translate(0.5,700.5)"><path class="background" aria-hidden="true" d="M0,0h0v0h0Z" pointer-events="none"/><g><g class="mark-rule role-axis-tick" pointer-events="none"><line transform="translate(0,0)" x2="0" y2="5" stroke="#888" stroke-width="1" opacity="1"/><line transform="translate(36,0)" x2="0" y2="5" stroke="#888" stroke-width="1" opacity="1"/><line transform="translate(73,0)" x2="0" y2="5" stroke="#888" stroke-width="1" opacity="1"/><line transform="translate(109,0)" x2="0" y2="5" stroke="#888" stroke-width="1" opacity="1"/><line transform="translate(145,0)" x2="0" y2="5" stroke="#888" stroke-width="1" opacity="1"/><line transform="translate(182,0)" x2="0" y2="5" stroke="#888" stroke-width="1" opacity="1"/><line transform="translate(218,0)" x2="0" y2="5" stroke="#888" stroke-width="1" opacity="1"/><line transform="translate(255,0)" x2="0" y2="5" stroke="#888" stroke-width="1" opacity="1"/><line transform="translate(291,0)" x2="0" y2="5" stroke="#888" stroke-width="1" opacity="1"/><line transform="translate(327,0)" x2="0" y2="5" stroke="#888" stroke-width="1" opacity="1"/><line transform="translate(364,0)" x2="0" y2="5" stroke="#888" stroke-width="1" opacity="1"/><line transform="translate(400,0)" x2="0" y2="5" stroke="#888" stroke-width="1" opacity="1"/></g><g class="mark-text role-axis-label" pointer-events="none"><text text-anchor="start" transform="translate(0,15)" font-family="sans-serif" font-size="10px" fill="#000" opacity="1">0</text><text text-anchor="middle" transform="translate(36.36363636363637,15)" font-family="sans-serif" font-size="10px" fill="#000" opacity="0">20,000</text><text text-anchor="middle" transform="translate(72.72727272727273,15)" font-family="sans-serif" font-size="10px" fill="#000" opacity="1">40,000</text><text text-anchor="middle" transform="translate(109.09090909090908,15)" font-family="sans-serif" font-size="10px" fill="#000" opacity="0">60,000</text><text text-anchor="middle" transform="translate(145.45454545454547,15)" font-family="sans-serif" font-size="10px" fill="#000" opacity="1">80,000</text><text text-anchor="middle" transform="translate(181.8181818181818,15)" font-family="sans-serif" font-size="10px" fill="#000" opacity="0">100,000</text><text text-anchor="middle" transform="translate(218.18181818181816,15)" font-family="sans-serif" font-size="10px" fill="#000" opacity="1">120,000</text><text text-anchor="middle" transform="translate(254.54545454545453,15)" font-family="sans-serif" font-size="10px" fill="#000" opacity="0">140,000</text><text text-anchor="middle" transform="translate(290.90909090909093,15)" font-family="sans-serif" font-size="10px" fill="#000" opacity="1">160,000</text><text text-anchor="middle" transform="translate(327.2727272727273,15)" font-family="sans-serif" font-size="10px" fill="#000" opacity="0">180,000</text><text text-anchor="middle" transform="translate(363.6363636363636,15)" font-family="sans-serif" font-size="10px" fill="#000" opacity="1">200,000</text><text text-anchor="end" transform="translate(400,15)" font-family="sans-serif" font-size="10px" fill="#000" opacity="0">220,000</text></g><g class="mark-rule role-axis-domain" pointer-events="none"><line transform="translate(0,0)" x2="400" y2="0" stroke="#888" stroke-width="1" opacity="1"/></g><g class="mark-text role-axis-title" pointer-events="none"><text text-anchor="middle" transform="translate(200,30)" font-family="sans-serif" font-size="11px" font-weight="bold" fill="#000" opacity="1">counts</text></g></g><path class="foreground" aria-hidden="true" d="" pointer-events="none" display="none"/></g></g><g class="mark-group role-axis" role="graphics-symbol" aria-roledescription="axis" aria-label="Y-axis titled 'channel' for a discrete scale with 59 values: WELT Nachrichtensender, Handelsblatt, faz, BILD, AFP Deutschland, ending with ARD"><g transform="translate(0.5,0.5)"><path class="background" aria-hidden="true" d="M0,0h0v0h0Z" pointer-events="none"/><g><g class="mark-rule role-axis-tick" pointer-events="none"><line transform="translate(0,5)" x2="-5" y2="0" stroke="#888" stroke-width="1" opacity="1"/><line transform="translate(0,17)" x2="-5" y2="0" stroke="#888" stroke-width="1" opacity="1"/><line transform="translate(0,29)" x2="-5" y2="0" stroke="#888" stroke-width="1" opacity="1"/><line transform="translate(0,41)" x2="-5" y2="0" stroke="#888" stroke-width="1" opacity="1"/><line transform="translate(0,53)" x2="-5" y2="0" stroke="#888" stroke-width="1" opacity="1"/><line transform="translate(0,65)" x2="-5" y2="0" stroke="#888" stroke-width="1" opacity="1"/><line transform="translate(0,77)" x2="-5" y2="0" stroke="#888" stroke-width="1" opacity="1"/><line transform="translate(0,88)" x2="-5" y2="0" stroke="#888" stroke-width="1" opacity="1"/><line transform="translate(0,100)" x2="-5" y2="0" stroke="#888" stroke-width="1" opacity="1"/><line transform="translate(0,112)" x2="-5" y2="0" stroke="#888" stroke-width="1" opacity="1"/><line transform="translate(0,124)" x2="-5" y2="0" stroke="#888" stroke-width="1" opacity="1"/><line transform="translate(0,136)" x2="-5" y2="0" stroke="#888" stroke-width="1" opacity="1"/><line transform="translate(0,148)" x2="-5" y2="0" stroke="#888" stroke-width="1" opacity="1"/><line transform="translate(0,160)" x2="-5" y2="0" stroke="#888" stroke-width="1" opacity="1"/><line transform="translate(0,172)" x2="-5" y2="0" stroke="#888" stroke-width="1" opacity="1"/><line transform="translate(0,183)" x2="-5" y2="0" stroke="#888" stroke-width="1" opacity="1"/><line transform="translate(0,195)" x2="-5" y2="0" stroke="#888" stroke-width="1" opacity="1"/><line transform="translate(0,207)" x2="-5" y2="0" stroke="#888" stroke-width="1" opacity="1"/><line transform="translate(0,219)" x2="-5" y2="0" stroke="#888" stroke-width="1" opacity="1"/><line transform="translate(0,231)" x2="-5" y2="0" stroke="#888" stroke-width="1" opacity="1"/><line transform="translate(0,243)" x2="-5" y2="0" stroke="#888" stroke-width="1" opacity="1"/><line transform="translate(0,255)" x2="-5" y2="0" stroke="#888" stroke-width="1" opacity="1"/><line transform="translate(0,266)" x2="-5" y2="0" stroke="#888" stroke-width="1" opacity="1"/><line transform="translate(0,278)" x2="-5" y2="0" stroke="#888" stroke-width="1" opacity="1"/><line transform="translate(0,290)" x2="-5" y2="0" stroke="#888" stroke-width="1" opacity="1"/><line transform="translate(0,302)" x2="-5" y2="0" stroke="#888" stroke-width="1" opacity="1"/><line transform="translate(0,314)" x2="-5" y2="0" stroke="#888" stroke-width="1" opacity="1"/><line transform="translate(0,326)" x2="-5" y2="0" stroke="#888" stroke-width="1" opacity="1"/><line transform="translate(0,338)" x2="-5" y2="0" stroke="#888" stroke-width="1" opacity="1"/><line transform="translate(0,350)" x2="-5" y2="0" stroke="#888" stroke-width="1" opacity="1"/><line transform="translate(0,361)" x2="-5" y2="0" stroke="#888" stroke-width="1" opacity="1"/><line transform="translate(0,373)" x2="-5" y2="0" stroke="#888" stroke-width="1" opacity="1"/><line transform="translate(0,385)" x2="-5" y2="0" stroke="#888" stroke-width="1" opacity="1"/><line transform="translate(0,397)" x2="-5" y2="0" stroke="#888" stroke-width="1" opacity="1"/><line transform="translate(0,409)" x2="-5" y2="0" stroke="#888" stroke-width="1" opacity="1"/><line transform="translate(0,421)" x2="-5" y2="0" stroke="#888" stroke-width="1" opacity="1"/><line transform="translate(0,433)" x2="-5" y2="0" stroke="#888" stroke-width="1" opacity="1"/><line transform="translate(0,444)" x2="-5" y2="0" stroke="#888" stroke-width="1" opacity="1"/><line transform="translate(0,456)" x2="-5" y2="0" stroke="#888" stroke-width="1" opacity="1"/><line transform="translate(0,468)" x2="-5" y2="0" stroke="#888" stroke-width="1" opacity="1"/><line transform="translate(0,480)" x2="-5" y2="0" stroke="#888" stroke-width="1" opacity="1"/><line transform="translate(0,492)" x2="-5" y2="0" stroke="#888" stroke-width="1" opacity="1"/><line transform="translate(0,504)" x2="-5" y2="0" stroke="#888" stroke-width="1" opacity="1"/><line transform="translate(0,516)" x2="-5" y2="0" stroke="#888" stroke-width="1" opacity="1"/><line transform="translate(0,527)" x2="-5" y2="0" stroke="#888" stroke-width="1" opacity="1"/><line transform="translate(0,539)" x2="-5" y2="0" stroke="#888" stroke-width="1" opacity="1"/><line transform="translate(0,551)" x2="-5" y2="0" stroke="#888" stroke-width="1" opacity="1"/><line transform="translate(0,563)" x2="-5" y2="0" stroke="#888" stroke-width="1" opacity="1"/><line transform="translate(0,575)" x2="-5" y2="0" stroke="#888" stroke-width="1" opacity="1"/><line transform="translate(0,587)" x2="-5" y2="0" stroke="#888" stroke-width="1" opacity="1"/><line transform="translate(0,599)" x2="-5" y2="0" stroke="#888" stroke-width="1" opacity="1"/><line transform="translate(0,611)" x2="-5" y2="0" stroke="#888" stroke-width="1" opacity="1"/><line transform="translate(0,622)" x2="-5" y2="0" stroke="#888" stroke-width="1" opacity="1"/><line transform="translate(0,634)" x2="-5" y2="0" stroke="#888" stroke-width="1" opacity="1"/><line transform="translate(0,646)" x2="-5" y2="0" stroke="#888" stroke-width="1" opacity="1"/><line transform="translate(0,658)" x2="-5" y2="0" stroke="#888" stroke-width="1" opacity="1"/><line transform="translate(0,670)" x2="-5" y2="0" stroke="#888" stroke-width="1" opacity="1"/><line transform="translate(0,682)" x2="-5" y2="0" stroke="#888" stroke-width="1" opacity="1"/><line transform="translate(0,694)" x2="-5" y2="0" stroke="#888" stroke-width="1" opacity="1"/></g><g class="mark-text role-axis-label" pointer-events="none"><text text-anchor="end" transform="translate(-7,8.432203389830487)" font-family="sans-serif" font-size="10px" fill="#000" opacity="1">WELT Nachrichtensender</text><text text-anchor="end" transform="translate(-7,20.296610169491505)" font-family="sans-serif" font-size="10px" fill="#000" opacity="1">Handelsblatt</text><text text-anchor="end" transform="translate(-7,32.161016949152526)" font-family="sans-serif" font-size="10px" fill="#000" opacity="1">faz</text><text text-anchor="end" transform="translate(-7,44.02542372881354)" font-family="sans-serif" font-size="10px" fill="#000" opacity="1">BILD</text><text text-anchor="end" transform="translate(-7,55.88983050847456)" font-family="sans-serif" font-size="10px" fill="#000" opacity="1">AFP Deutschland</text><text text-anchor="end" transform="translate(-7,67.75423728813557)" font-family="sans-serif" font-size="10px" fill="#000" opacity="1">tagesschau</text><text text-anchor="end" transform="translate(-7,79.6186440677966)" font-family="sans-serif" font-size="10px" fill="#000" opacity="1">SPORT BILD</text><text text-anchor="end" transform="translate(-7,91.48305084745762)" font-family="sans-serif" font-size="10px" fill="#000" opacity="1">DER AKTIONÄR TV</text><text text-anchor="end" transform="translate(-7,103.34745762711863)" font-family="sans-serif" font-size="10px" fill="#000" opacity="1">BR24</text><text text-anchor="end" transform="translate(-7,115.21186440677964)" font-family="sans-serif" font-size="10px" fill="#000" opacity="1">DW Deutsch</text><text text-anchor="end" transform="translate(-7,127.07627118644066)" font-family="sans-serif" font-size="10px" fill="#000" opacity="1">phoenix</text><text text-anchor="end" transform="translate(-7,138.94067796610167)" font-family="sans-serif" font-size="10px" fill="#000" opacity="1">WDR aktuell</text><text text-anchor="end" transform="translate(-7,150.80508474576268)" font-family="sans-serif" font-size="10px" fill="#000" opacity="1">ZDFheute Nachrichten</text><text text-anchor="end" transform="translate(-7,162.6694915254237)" font-family="sans-serif" font-size="10px" fill="#000" opacity="1">DER SPIEGEL</text><text text-anchor="end" transform="translate(-7,174.53389830508473)" font-family="sans-serif" font-size="10px" fill="#000" opacity="1">hessenschau</text><text text-anchor="end" transform="translate(-7,186.39830508474574)" font-family="sans-serif" font-size="10px" fill="#000" opacity="1">SPOX</text><text text-anchor="end" transform="translate(-7,198.26271186440675)" font-family="sans-serif" font-size="10px" fill="#000" opacity="1">Goal Deutschland</text><text text-anchor="end" transform="translate(-7,210.12711864406776)" font-family="sans-serif" font-size="10px" fill="#000" opacity="1">münchen.tv</text><text text-anchor="end" transform="translate(-7,221.99152542372877)" font-family="sans-serif" font-size="10px" fill="#000" opacity="1">Stuttgarter Zeitung &amp; Stuttgarter Nachrichten</text><text text-anchor="end" transform="translate(-7,233.8559322033898)" font-family="sans-serif" font-size="10px" fill="#000" opacity="1">FOCUS Online</text><text text-anchor="end" transform="translate(-7,245.72033898305082)" font-family="sans-serif" font-size="10px" fill="#000" opacity="1">Eintracht Frankfurt</text><text text-anchor="end" transform="translate(-7,257.5847457627118)" font-family="sans-serif" font-size="10px" fill="#000" opacity="1">HSV</text><text text-anchor="end" transform="translate(-7,269.4491525423729)" font-family="sans-serif" font-size="10px" fill="#000" opacity="1">Sportschau</text><text text-anchor="end" transform="translate(-7,281.3135593220339)" font-family="sans-serif" font-size="10px" fill="#000" opacity="1">Hertha BSC</text><text text-anchor="end" transform="translate(-7,293.1779661016949)" font-family="sans-serif" font-size="10px" fill="#000" opacity="1">Abendblatt-TV</text><text text-anchor="end" transform="translate(-7,305.0423728813559)" font-family="sans-serif" font-size="10px" fill="#000" opacity="1">1. FC Nürnberg - CLUB TV</text><text text-anchor="end" transform="translate(-7,316.9067796610169)" font-family="sans-serif" font-size="10px" fill="#000" opacity="1">VfL BOCHUM 1848</text><text text-anchor="end" transform="translate(-7,328.7711864406779)" font-family="sans-serif" font-size="10px" fill="#000" opacity="1">Süddeutsche Zeitung</text><text text-anchor="end" transform="translate(-7,340.635593220339)" font-family="sans-serif" font-size="10px" fill="#000" opacity="1">TV.Berlin - Der Hauptstadtsender</text><text text-anchor="end" transform="translate(-7,352.5)" font-family="sans-serif" font-size="10px" fill="#000" opacity="1">1. FC Union Berlin</text><text text-anchor="end" transform="translate(-7,364.364406779661)" font-family="sans-serif" font-size="10px" fill="#000" opacity="1">HANNOVER 96</text><text text-anchor="end" transform="translate(-7,376.228813559322)" font-family="sans-serif" font-size="10px" fill="#000" opacity="1">ADAC</text><text text-anchor="end" transform="translate(-7,388.09322033898303)" font-family="sans-serif" font-size="10px" fill="#000" opacity="1">hrfernsehen</text><text text-anchor="end" transform="translate(-7,399.95762711864404)" font-family="sans-serif" font-size="10px" fill="#000" opacity="1">extra 3</text><text text-anchor="end" transform="translate(-7,411.82203389830505)" font-family="sans-serif" font-size="10px" fill="#000" opacity="1">ntv Nachrichten</text><text text-anchor="end" transform="translate(-7,423.68644067796606)" font-family="sans-serif" font-size="10px" fill="#000" opacity="1">RTL</text><text text-anchor="end" transform="translate(-7,435.55084745762707)" font-family="sans-serif" font-size="10px" fill="#000" opacity="1">shz.de – Nachrichten aus Schleswig-Holstein</text><text text-anchor="end" transform="translate(-7,447.41525423728814)" font-family="sans-serif" font-size="10px" fill="#000" opacity="1">SWR</text><text text-anchor="end" transform="translate(-7,459.27966101694915)" font-family="sans-serif" font-size="10px" fill="#000" opacity="1">1. FC Kaiserslautern</text><text text-anchor="end" transform="translate(-7,471.14406779661016)" font-family="sans-serif" font-size="10px" fill="#000" opacity="1">kicker</text><text text-anchor="end" transform="translate(-7,483.00847457627117)" font-family="sans-serif" font-size="10px" fill="#000" opacity="1">TV Westsachsen</text><text text-anchor="end" transform="translate(-7,494.8728813559322)" font-family="sans-serif" font-size="10px" fill="#000" opacity="1">ttt - titel thesen temperamente</text><text text-anchor="end" transform="translate(-7,506.7372881355932)" font-family="sans-serif" font-size="10px" fill="#000" opacity="1">noz.de</text><text text-anchor="end" transform="translate(-7,518.6016949152543)" font-family="sans-serif" font-size="10px" fill="#000" opacity="1">Borussia Mönchengladbach</text><text text-anchor="end" transform="translate(-7,530.4661016949153)" font-family="sans-serif" font-size="10px" fill="#000" opacity="1">Augsburger Allgemeine</text><text text-anchor="end" transform="translate(-7,542.3305084745762)" font-family="sans-serif" font-size="10px" fill="#000" opacity="1">Greenpeace Deutschland</text><text text-anchor="end" transform="translate(-7,554.1949152542372)" font-family="sans-serif" font-size="10px" fill="#000" opacity="1">badischezeitung</text><text text-anchor="end" transform="translate(-7,566.0593220338983)" font-family="sans-serif" font-size="10px" fill="#000" opacity="1">Motorsport-Total.com</text><text text-anchor="end" transform="translate(-7,577.9237288135594)" font-family="sans-serif" font-size="10px" fill="#000" opacity="1">stern</text><text text-anchor="end" transform="translate(-7,589.7881355932204)" font-family="sans-serif" font-size="10px" fill="#000" opacity="1">STIMMETV</text><text text-anchor="end" transform="translate(-7,601.6525423728813)" font-family="sans-serif" font-size="10px" fill="#000" opacity="1">Weltspiegel</text><text text-anchor="end" transform="translate(-7,613.5169491525423)" font-family="sans-serif" font-size="10px" fill="#000" opacity="1">Nordwest TV</text><text text-anchor="end" transform="translate(-7,625.3813559322034)" font-family="sans-serif" font-size="10px" fill="#000" opacity="1">LIQUI MOLY HBL</text><text text-anchor="end" transform="translate(-7,637.2457627118645)" font-family="sans-serif" font-size="10px" fill="#000" opacity="1">Zeitungsverlag Waiblingen</text><text text-anchor="end" transform="translate(-7,649.1101694915253)" font-family="sans-serif" font-size="10px" fill="#000" opacity="1">WetterOnline</text><text text-anchor="end" transform="translate(-7,660.9745762711864)" font-family="sans-serif" font-size="10px" fill="#000" opacity="1">MDR Mitteldeutscher Rundfunk</text><text text-anchor="end" transform="translate(-7,672.8389830508474)" font-family="sans-serif" font-size="10px" fill="#000" opacity="1">wetternet</text><text text-anchor="end" transform="translate(-7,684.7033898305085)" font-family="sans-serif" font-size="10px" fill="#000" opacity="1">MDR Investigativ</text><text text-anchor="end" transform="translate(-7,696.5677966101696)" font-family="sans-serif" font-size="10px" fill="#000" opacity="1">ARD</text></g><g class="mark-rule role-axis-domain" pointer-events="none"><line transform="translate(0,0)" x2="0" y2="700" stroke="#888" stroke-width="1" opacity="1"/></g><g class="mark-text role-axis-title" pointer-events="none"><text text-anchor="middle" transform="translate(-204,350) rotate(-90) translate(0,-2)" font-family="sans-serif" font-size="11px" font-weight="bold" fill="#000" opacity="1">channel</text></g></g><path class="foreground" aria-hidden="true" d="" pointer-events="none" display="none"/></g></g><g class="mark-rect role-mark marks" role="graphics-symbol" aria-roledescription="rect mark container"><path d="M0,0.5932203389830306h393.94545454545454v10.677966101694915h-393.94545454545454Z" fill="#4c78a8"/><path d="M0,12.457627118644048h125.31272727272726v10.677966101694915h-125.31272727272726Z" fill="#4c78a8"/><path d="M0,24.322033898305065h107.83272727272728v10.677966101694915h-107.83272727272728Z" fill="#4c78a8"/><path d="M0,36.18644067796608h107.2090909090909v10.677966101694915h-107.2090909090909Z" fill="#4c78a8"/><path d="M0,48.0508474576271h97.25818181818182v10.677966101694915h-97.25818181818182Z" fill="#4c78a8"/><path d="M0,59.91525423728812h89.46v10.677966101694915h-89.46Z" fill="#4c78a8"/><path d="M0,71.77966101694913h86.64181818181818v10.677966101694915h-86.64181818181818Z" fill="#4c78a8"/><path d="M0,83.64406779661016h51.42v10.677966101694915h-51.42Z" fill="#4c78a8"/><path d="M0,95.50847457627117h48.60727272727273v10.677966101694915h-48.60727272727273Z" fill="#4c78a8"/><path d="M0,107.37288135593218h39.46727272727273v10.677966101694915h-39.46727272727273Z" fill="#4c78a8"/><path d="M0,119.2372881355932h28.42545454545455v10.677966101694915h-28.42545454545455Z" fill="#4c78a8"/><path d="M0,131.10169491525423h24.829090909090908v10.677966101694915h-24.829090909090908Z" fill="#4c78a8"/><path d="M0,142.96610169491524h19.69272727272727v10.677966101694915h-19.69272727272727Z" fill="#4c78a8"/><path d="M0,154.83050847457625h19.05090909090909v10.677966101694915h-19.05090909090909Z" fill="#4c78a8"/><path d="M0,166.6949152542373h18.465454545454545v10.677966101694915h-18.465454545454545Z" fill="#4c78a8"/><path d="M0,178.5593220338983h17.247272727272726v10.677966101694915h-17.247272727272726Z" fill="#4c78a8"/><path d="M0,190.4237288135593h15.892727272727273v10.677966101694915h-15.892727272727273Z" fill="#4c78a8"/><path d="M0,202.28813559322032h14.474545454545455v10.677966101694915h-14.474545454545455Z" fill="#4c78a8"/><path d="M0,214.15254237288133h12.321818181818182v10.677966101694915h-12.321818181818182Z" fill="#4c78a8"/><path d="M0,226.01694915254237h11.97090909090909v10.677966101694915h-11.97090909090909Z" fill="#4c78a8"/><path d="M0,237.88135593220338h11.889090909090909v10.677966101694915h-11.889090909090909Z" fill="#4c78a8"/><path d="M0,249.7457627118644h9.850909090909092v10.677966101694915h-9.850909090909092Z" fill="#4c78a8"/><path d="M0,261.6101694915254h9.47090909090909v10.677966101694915h-9.47090909090909Z" fill="#4c78a8"/><path d="M0,273.47457627118644h9.456363636363637v10.677966101694915h-9.456363636363637Z" fill="#4c78a8"/><path d="M0,285.33898305084745h8.589090909090908v10.677966101694915h-8.589090909090908Z" fill="#4c78a8"/><path d="M0,297.20338983050846h7.3981818181818175v10.677966101694915h-7.3981818181818175Z" fill="#4c78a8"/><path d="M0,309.06779661016947h7.327272727272726v10.677966101694915h-7.327272727272726Z" fill="#4c78a8"/><path d="M0,320.9322033898305h7.109090909090909v10.677966101694915h-7.109090909090909Z" fill="#4c78a8"/><path d="M0,332.79661016949154h6.959999999999999v10.677966101694915h-6.959999999999999Z" fill="#4c78a8"/><path d="M0,344.66101694915255h6.6418181818181825v10.677966101694915h-6.6418181818181825Z" fill="#4c78a8"/><path d="M0,356.52542372881356h5.918181818181818v10.677966101694915h-5.918181818181818Z" fill="#4c78a8"/><path d="M0,368.3898305084746h5.26v10.677966101694915h-5.26Z" fill="#4c78a8"/><path d="M0,380.2542372881356h5.227272727272727v10.677966101694915h-5.227272727272727Z" fill="#4c78a8"/><path d="M0,392.1186440677966h5.214545454545454v10.677966101694915h-5.214545454545454Z" fill="#4c78a8"/><path d="M0,403.9830508474576h5.169090909090909v10.677966101694915h-5.169090909090909Z" fill="#4c78a8"/><path d="M0,415.8474576271186h4.565454545454545v10.677966101694915h-4.565454545454545Z" fill="#4c78a8"/><path d="M0,427.7118644067796h4.3909090909090915v10.677966101694915h-4.3909090909090915Z" fill="#4c78a8"/><path d="M0,439.5762711864407h4.367272727272727v10.677966101694915h-4.367272727272727Z" fill="#4c78a8"/><path d="M0,451.4406779661017h3.752727272727273v10.677966101694915h-3.752727272727273Z" fill="#4c78a8"/><path d="M0,463.3050847457627h3.6909090909090914v10.677966101694915h-3.6909090909090914Z" fill="#4c78a8"/><path d="M0,475.1694915254237h3.192727272727273v10.677966101694915h-3.192727272727273Z" fill="#4c78a8"/><path d="M0,487.03389830508473h3.1054545454545455v10.677966101694915h-3.1054545454545455Z" fill="#4c78a8"/><path d="M0,498.89830508474574h2.730909090909091v10.677966101694915h-2.730909090909091Z" fill="#4c78a8"/><path d="M0,510.76271186440675h2.0290909090909093v10.677966101694915h-2.0290909090909093Z" fill="#4c78a8"/><path d="M0,522.6271186440679h1.9545454545454546v10.677966101694915h-1.9545454545454546Z" fill="#4c78a8"/><path d="M0,534.4915254237287h1.5690909090909093v10.677966101694915h-1.5690909090909093Z" fill="#4c78a8"/><path d="M0,546.3559322033898h1.4090909090909092v10.677966101694915h-1.4090909090909092Z" fill="#4c78a8"/><path d="M0,558.2203389830509h1.4036363636363636v10.677966101694915h-1.4036363636363636Z" fill="#4c78a8"/><path d="M0,570.0847457627119h1.001818181818182v10.677966101694915h-1.001818181818182Z" fill="#4c78a8"/><path d="M0,581.949152542373h0.8v10.677966101694915h-0.8Z" fill="#4c78a8"/><path d="M0,593.8135593220338h0.7781818181818181v10.677966101694915h-0.7781818181818181Z" fill="#4c78a8"/><path d="M0,605.6779661016949h0.6327272727272727v10.677966101694915h-0.6327272727272727Z" fill="#4c78a8"/><path d="M0,617.542372881356h0.62v10.677966101694915h-0.62Z" fill="#4c78a8"/><path d="M0,629.406779661017h0.5090909090909091v10.677966101694915h-0.5090909090909091Z" fill="#4c78a8"/><path d="M0,641.2711864406779h0.38909090909090904v10.677966101694915h-0.38909090909090904Z" fill="#4c78a8"/><path d="M0,653.1355932203389h0.24727272727272728v10.677966101694915h-0.24727272727272728Z" fill="#4c78a8"/><path d="M0,665h0.22v10.677966101694915h-0.22Z" fill="#4c78a8"/><path d="M0,676.8644067796611h0.05636363636363636v10.677966101694915h-0.05636363636363636Z" fill="#4c78a8"/><path d="M0,688.7288135593221h0.034545454545454546v10.677966101694915h-0.034545454545454546Z" fill="#4c78a8"/></g><g class="mark-group role-title"><g transform="translate(200,-17)"><path class="background" aria-hidden="true" d="M0,0h0v0h0Z" pointer-events="none"/><g><g class="mark-text role-title-text" role="graphics-symbol" aria-roledescription="title" aria-label="Title text 'Counts for all playlists'" pointer-events="none"><text text-anchor="middle" transform="translate(0,10)" font-family="sans-serif" font-size="13px" font-weight="bold" fill="#000" opacity="1">Counts for all playlists</text></g></g><path class="foreground" aria-hidden="true" d="" pointer-events="none" display="none"/></g></g></g><path class="foreground" aria-hidden="true" d="" display="none"/></g></g></g></svg>