<svg xmlns="http://www.w3.org/2000/svg" xmlns:xlink="http://www.w3.org/1999/xlink" version="1.1" class="marks" width="752" height="732" viewBox="0 0 752 732"><rect width="752" height="732" fill="white"/><g fill="none" stroke-miterlimit="10" transform="translate(45,23)"><g class="mark-group role-frame root" role="graphics-object" aria-roledescription="group mark container"><g transform="translate(0,0)"><path class="background" aria-hidden="true" d="M0,0h0v0h0Z"/><g><g class="mark-group role-scope concat_0_group" role="graphics-object" aria-roledescription="group mark container"><g transform="translate(0,0)"><path class="background" aria-hidden="true" d="M0.5,0.5h700v300h-700Z" stroke="#ddd"/><g><g class="mark-group role-axis" role="graphics-symbol" aria-roledescription="axis" aria-label="Y-axis for a linear scale with values from 0 to 260"><g transform="translate(0.5,0.5)"><path class="background" aria-hidden="true" d="M0,0h0v0h0Z" pointer-events="none"/><g><g class="mark-rule role-axis-grid" pointer-events="none"><line transform="translate(0,300)" x2="700" y2="0" stroke="#ddd" stroke-width="1" opacity="1"/><line transform="translate(0,242)" x2="700" y2="0" stroke="#ddd" stroke-width="1" opacity="1"/><line transform="translate(0,185)" x2="700" y2="0" stroke="#ddd" stroke-width="1" opacity="1"/><line transform="translate(0,127)" x2="700" y2="0" stroke="#ddd" stroke-width="1" opacity="1"/><line transform="translate(0,69)" x2="700" y2="0" stroke="#ddd" stroke-width="1" opacity="1"/><line transform="translate(0,12)" x2="700" y2="0" stroke="#ddd" stroke-width="1" opacity="1"/></g></g><path class="foreground" aria-hidden="true" d="" pointer-events="none" display="none"/></g></g><g class="mark-group role-axis" role="graphics-symbol" aria-roledescription="axis" aria-label="X-axis titled 'duration (binned)' for a linear scale with values from 0 to 6,000"><g transform="translate(0.5,300.5)"><path class="background" aria-hidden="true" d="M0,0h0v0h0Z" pointer-events="none"/><g><g class="mark-rule role-axis-tick" pointer-events="none"><line transform="translate(0,0)" x2="0" y2="5" stroke="#888" stroke-width="1" opacity="1"/><line transform="translate(12,0)" x2="0" y2="5" stroke="#888" stroke-width="1" opacity="1"/><line transform="translate(23,0)" x2="0" y2="5" stroke="#888" stroke-width="1" opacity="1"/><line transform="translate(35,0)" x2="0" y2="5" stroke="#888" stroke-width="1" opacity="1"/><line transform="translate(47,0)" x2="0" y2="5" stroke="#888" stroke-width="1" opacity="1"/><line transform="translate(58,0)" x2="0" y2="5" stroke="#888" stroke-width="1" opacity="1"/><line transform="translate(70,0)" x2="0" y2="5" stroke="#888" stroke-width="1" opacity="1"/><line transform="translate(82,0)" x2="0" y2="5" stroke="#888" stroke-width="1" opacity="1"/><line transform="translate(93,0)" x2="0" y2="5" stroke="#888" stroke-width="1" opacity="1"/><line transform="translate(105,0)" x2="0" y2="5" stroke="#888" stroke-width="1" opacity="1"/><line transform="translate(117,0)" x2="0" y2="5" stroke="#888" stroke-width="1" opacity="1"/><line transform="translate(128,0)" x2="0" y2="5" stroke="#888" stroke-width="1" opacity="1"/><line transform="translate(140,0)" x2="0" y2="5" stroke="#888" stroke-width="1" opacity="1"/><line transform="translate(152,0)" x2="0" y2="5" stroke="#888" stroke-width="1" opacity="1"/><line transform="translate(163,0)" x2="0" y2="5" stroke="#888" stroke-width="1" opacity="1"/><line transform="translate(175,0)" x2="0" y2="5" stroke="#888" stroke-width="1" opacity="1"/><line transform="translate(187,0)" x2="0" y2="5" stroke="#888" stroke-width="1" opacity="1"/><line transform="translate(198,0)" x2="0" y2="5" stroke="#888" stroke-width="1" opacity="1"/><line transform="translate(210,0)" x2="0" y2="5" stroke="#888" stroke-width="1" opacity="1"/><line transform="translate(222,0)" x2="0" y2="5" stroke="#888" stroke-width="1" opacity="1"/><line transform="translate(233,0)" x2="0" y2="5" stroke="#888" stroke-width="1" opacity="1"/><line transform="translate(245,0)" x2="0" y2="5" stroke="#888" stroke-width="1" opacity="1"/><line transform="translate(257,0)" x2="0" y2="5" stroke="#888" stroke-width="1" opacity="1"/><line transform="translate(268,0)" x2="0" y2="5" stroke="#888" stroke-width="1" opacity="1"/><line transform="translate(280,0)" x2="0" y2="5" stroke="#888" stroke-width="1" opacity="1"/><line transform="translate(292,0)" x2="0" y2="5" stroke="#888" stroke-width="1" opacity="1"/><line transform="translate(303,0)" x2="0" y2="5" stroke="#888" stroke-width="1" opacity="1"/><line transform="translate(315,0)" x2="0" y2="5" stroke="#888" stroke-width="1" opacity="1"/><line transform="translate(327,0)" x2="0" y2="5" stroke="#888" stroke-width="1" opacity="1"/><line transform="translate(338,0)" x2="0" y2="5" stroke="#888" stroke-width="1" opacity="1"/><line transform="translate(350,0)" x2="0" y2="5" stroke="#888" stroke-width="1" opacity="1"/><line transform="translate(362,0)" x2="0" y2="5" stroke="#888" stroke-width="1" opacity="1"/><line transform="translate(373,0)" x2="0" y2="5" stroke="#888" stroke-width="1" opacity="1"/><line transform="translate(385,0)" x2="0" y2="5" stroke="#888" stroke-width="1" opacity="1"/><line transform="translate(397,0)" x2="0" y2="5" stroke="#888" stroke-width="1" opacity="1"/><line transform="translate(408,0)" x2="0" y2="5" stroke="#888" stroke-width="1" opacity="1"/><line transform="translate(420,0)" x2="0" y2="5" stroke="#888" stroke-width="1" opacity="1"/><line transform="translate(432,0)" x2="0" y2="5" stroke="#888" stroke-width="1" opacity="1"/><line transform="translate(443,0)" x2="0" y2="5" stroke="#888" stroke-width="1" opacity="1"/><line transform="translate(455,0)" x2="0" y2="5" stroke="#888" stroke-width="1" opacity="1"/><line transform="translate(467,0)" x2="0" y2="5" stroke="#888" stroke-width="1" opacity="1"/><line transform="translate(478,0)" x2="0" y2="5" stroke="#888" stroke-width="1" opacity="1"/><line transform="translate(490,0)" x2="0" y2="5" stroke="#888" stroke-width="1" opacity="1"/><line transform="translate(502,0)" x2="0" y2="5" stroke="#888" stroke-width="1" opacity="1"/><line transform="translate(513,0)" x2="0" y2="5" stroke="#888" stroke-width="1" opacity="1"/><line transform="translate(525,0)" x2="0" y2="5" stroke="#888" stroke-width="1" opacity="1"/><line transform="translate(537,0)" x2="0" y2="5" stroke="#888" stroke-width="1" opacity="1"/><line transform="translate(548,0)" x2="0" y2="5" stroke="#888" stroke-width="1" opacity="1"/><line transform="translate(560,0)" x2="0" y2="5" stroke="#888" stroke-width="1" opacity="1"/><line transform="translate(572,0)" x2="0" y2="5" stroke="#888" stroke-width="1" opacity="1"/><line transform="translate(583,0)" x2="0" y2="5" stroke="#888" stroke-width="1" opacity="1"/><line transform="translate(595,0)" x2="0" y2="5" stroke="#888" stroke-width="1" opacity="1"/><line transform="translate(607,0)" x2="0" y2="5" stroke="#888" stroke-width="1" opacity="1"/><line transform="translate(618,0)" x2="0" y2="5" stroke="#888" stroke-width="1" opacity="1"/><line transform="translate(630,0)" x2="0" y2="5" stroke="#888" stroke-width="1" opacity="1"/><line transform="translate(642,0)" x2="0" y2="5" stroke="#888" stroke-width="1" opacity="1"/><line transform="translate(653,0)" x2="0" y2="5" stroke="#888" stroke-width="1" opacity="1"/><line transform="translate(665,0)" x2="0" y2="5" stroke="#888" stroke-width="1" opacity="1"/><line transform="translate(677,0)" x2="0" y2="5" stroke="#888" stroke-width="1" opacity="1"/><line transform="translate(688,0)" x2="0" y2="5" stroke="#888" stroke-width="1" opacity="1"/><line transform="translate(700,0)" x2="0" y2="5" stroke="#888" stroke-width="1" opacity="1"/></g><g class="mark-text role-axis-label" pointer-events="none"><text text-anchor="start" transform="translate(0,15)" font-family="sans-serif" font-size="10px" fill="#000" opacity="1">0</text><text text-anchor="middle" transform="translate(11.666666666666666,15)" font-family="sans-serif" font-size="10px" fill="#000" opacity="0">100</text><text text-anchor="middle" transform="translate(23.333333333333332,15)" font-family="sans-serif" font-size="10px" fill="#000" opacity="0">200</text><text text-anchor="middle" transform="translate(35,15)" font-family="sans-serif" font-size="10px" fill="#000" opacity="0">300</text><text text-anchor="middle" transform="translate(46.666666666666664,15)" font-family="sans-serif" font-size="10px" fill="#000" opacity="1">400</text><text text-anchor="middle" transform="translate(58.33333333333333,15)" font-family="sans-serif" font-size="10px" fill="#000" opacity="0">500</text><text text-anchor="middle" transform="translate(70,15)" font-family="sans-serif" font-size="10px" fill="#000" opacity="0">600</text><text text-anchor="middle" transform="translate(81.66666666666667,15)" font-family="sans-serif" font-size="10px" fill="#000" opacity="0">700</text><text text-anchor="middle" transform="translate(93.33333333333333,15)" font-family="sans-serif" font-size="10px" fill="#000" opacity="1">800</text><text text-anchor="middle" transform="translate(105,15)" font-family="sans-serif" font-size="10px" fill="#000" opacity="0">900</text><text text-anchor="middle" transform="translate(116.66666666666666,15)" font-family="sans-serif" font-size="10px" fill="#000" opacity="0">1,000</text><text text-anchor="middle" transform="translate(128.33333333333331,15)" font-family="sans-serif" font-size="10px" fill="#000" opacity="0">1,100</text><text text-anchor="middle" transform="translate(140,15)" font-family="sans-serif" font-size="10px" fill="#000" opacity="1">1,200</text><text text-anchor="middle" transform="translate(151.66666666666669,15)" font-family="sans-serif" font-size="10px" fill="#000" opacity="0">1,300</text><text text-anchor="middle" transform="translate(163.33333333333334,15)" font-family="sans-serif" font-size="10px" fill="#000" opacity="0">1,400</text><text text-anchor="middle" transform="translate(175,15)" font-family="sans-serif" font-size="10px" fill="#000" opacity="0">1,500</text><text text-anchor="middle" transform="translate(186.66666666666666,15)" font-family="sans-serif" font-size="10px" fill="#000" opacity="1">1,600</text><text text-anchor="middle" transform="translate(198.33333333333331,15)" font-family="sans-serif" font-size="10px" fill="#000" opacity="0">1,700</text><text text-anchor="middle" transform="translate(210,15)" font-family="sans-serif" font-size="10px" fill="#000" opacity="0">1,800</text><text text-anchor="middle" transform="translate(221.66666666666666,15)" font-family="sans-serif" font-size="10px" fill="#000" opacity="0">1,900</text><text text-anchor="middle" transform="translate(233.33333333333331,15)" font-family="sans-serif" font-size="10px" fill="#000" opacity="1">2,000</text><text text-anchor="middle" transform="translate(244.99999999999997,15)" font-family="sans-serif" font-size="10px" fill="#000" opacity="0">2,100</text><text text-anchor="middle" transform="translate(256.66666666666663,15)" font-family="sans-serif" font-size="10px" fill="#000" opacity="0">2,200</text><text text-anchor="middle" transform="translate(268.33333333333337,15)" font-family="sans-serif" font-size="10px" fill="#000" opacity="0">2,300</text><text text-anchor="middle" transform="translate(280,15)" font-family="sans-serif" font-size="10px" fill="#000" opacity="1">2,400</text><text text-anchor="middle" transform="translate(291.6666666666667,15)" font-family="sans-serif" font-size="10px" fill="#000" opacity="0">2,500</text><text text-anchor="middle" transform="translate(303.33333333333337,15)" font-family="sans-serif" font-size="10px" fill="#000" opacity="0">2,600</text><text text-anchor="middle" transform="translate(315,15)" font-family="sans-serif" font-size="10px" fill="#000" opacity="0">2,700</text><text text-anchor="middle" transform="translate(326.6666666666667,15)" font-family="sans-serif" font-size="10px" fill="#000" opacity="1">2,800</text><text text-anchor="middle" transform="translate(338.3333333333333,15)" font-family="sans-serif" font-size="10px" fill="#000" opacity="0">2,900</text><text text-anchor="middle" transform="translate(350,15)" font-family="sans-serif" font-size="10px" fill="#000" opacity="0">3,000</text><text text-anchor="middle" transform="translate(361.6666666666667,15)" font-family="sans-serif" font-size="10px" fill="#000" opacity="0">3,100</text><text text-anchor="middle" transform="translate(373.3333333333333,15)" font-family="sans-serif" font-size="10px" fill="#000" opacity="1">3,200</text><text text-anchor="middle" transform="translate(385.00000000000006,15)" font-family="sans-serif" font-size="10px" fill="#000" opacity="0">3,300</text><text text-anchor="middle" transform="translate(396.66666666666663,15)" font-family="sans-serif" font-size="10px" fill="#000" opacity="0">3,400</text><text text-anchor="middle" transform="translate(408.33333333333337,15)" font-family="sans-serif" font-size="10px" fill="#000" opacity="0">3,500</text><text text-anchor="middle" transform="translate(420,15)" font-family="sans-serif" font-size="10px" fill="#000" opacity="1">3,600</text><text text-anchor="middle" transform="translate(431.6666666666667,15)" font-family="sans-serif" font-size="10px" fill="#000" opacity="0">3,700</text><text text-anchor="middle" transform="translate(443.3333333333333,15)" font-family="sans-serif" font-size="10px" fill="#000" opacity="0">3,800</text><text text-anchor="middle" transform="translate(455,15)" font-family="sans-serif" font-size="10px" fill="#000" opacity="0">3,900</text><text text-anchor="middle" transform="translate(466.66666666666663,15)" font-family="sans-serif" font-size="10px" fill="#000" opacity="1">4,000</text><text text-anchor="middle" transform="translate(478.33333333333337,15)" font-family="sans-serif" font-size="10px" fill="#000" opacity="0">4,100</text><text text-anchor="middle" transform="translate(489.99999999999994,15)" font-family="sans-serif" font-size="10px" fill="#000" opacity="0">4,200</text><text text-anchor="middle" transform="translate(501.6666666666667,15)" font-family="sans-serif" font-size="10px" fill="#000" opacity="0">4,300</text><text text-anchor="middle" transform="translate(513.3333333333333,15)" font-family="sans-serif" font-size="10px" fill="#000" opacity="1">4,400</text><text text-anchor="middle" transform="translate(525,15)" font-family="sans-serif" font-size="10px" fill="#000" opacity="0">4,500</text><text text-anchor="middle" transform="translate(536.6666666666667,15)" font-family="sans-serif" font-size="10px" fill="#000" opacity="0">4,600</text><text text-anchor="middle" transform="translate(548.3333333333334,15)" font-family="sans-serif" font-size="10px" fill="#000" opacity="0">4,700</text><text text-anchor="middle" transform="translate(560,15)" font-family="sans-serif" font-size="10px" fill="#000" opacity="1">4,800</text><text text-anchor="middle" transform="translate(571.6666666666666,15)" font-family="sans-serif" font-size="10px" fill="#000" opacity="0">4,900</text><text text-anchor="middle" transform="translate(583.3333333333334,15)" font-family="sans-serif" font-size="10px" fill="#000" opacity="0">5,000</text><text text-anchor="middle" transform="translate(595,15)" font-family="sans-serif" font-size="10px" fill="#000" opacity="0">5,100</text><text text-anchor="middle" transform="translate(606.6666666666667,15)" font-family="sans-serif" font-size="10px" fill="#000" opacity="1">5,200</text><text text-anchor="middle" transform="translate(618.3333333333333,15)" font-family="sans-serif" font-size="10px" fill="#000" opacity="0">5,300</text><text text-anchor="middle" transform="translate(630,15)" font-family="sans-serif" font-size="10px" fill="#000" opacity="0">5,400</text><text text-anchor="middle" transform="translate(641.6666666666666,15)" font-family="sans-serif" font-size="10px" fill="#000" opacity="0">5,500</text><text text-anchor="middle" transform="translate(653.3333333333334,15)" font-family="sans-serif" font-size="10px" fill="#000" opacity="1">5,600</text><text text-anchor="middle" transform="translate(665,15)" font-family="sans-serif" font-size="10px" fill="#000" opacity="0">5,700</text><text text-anchor="middle" transform="translate(676.6666666666666,15)" font-family="sans-serif" font-size="10px" fill="#000" opacity="0">5,800</text><text text-anchor="middle" transform="translate(688.3333333333333,15)" font-family="sans-serif" font-size="10px" fill="#000" opacity="0">5,900</text><text text-anchor="end" transform="translate(700,15)" font-family="sans-serif" font-size="10px" fill="#000" opacity="1">6,000</text></g><g class="mark-rule role-axis-domain" pointer-events="none"><line transform="translate(0,0)" x2="700" y2="0" stroke="#888" stroke-width="1" opacity="1"/></g><g class="mark-text role-axis-title" pointer-events="none"><text text-anchor="middle" transform="translate(350,30)" font-family="sans-serif" font-size="11px" font-weight="bold" fill="#000" opacity="1">duration (binned)</text></g></g><path class="foreground" aria-hidden="true" d="" pointer-events="none" display="none"/></g></g><g class="mark-group role-axis" role="graphics-symbol" aria-roledescription="axis" aria-label="Y-axis titled 'Count of Records' for a linear scale with values from 0 to 260"><g transform="translate(0.5,0.5)"><path class="background" aria-hidden="true" d="M0,0h0v0h0Z" pointer-events="none"/><g><g class="mark-rule role-axis-tick" pointer-events="none"><line transform="translate(0,300)" x2="-5" y2="0" stroke="#888" stroke-width="1" opacity="1"/><line transform="translate(0,242)" x2="-5" y2="0" stroke="#888" stroke-width="1" opacity="1"/><line transform="translate(0,185)" x2="-5" y2="0" stroke="#888" stroke-width="1" opacity="1"/><line transform="translate(0,127)" x2="-5" y2="0" stroke="#888" stroke-width="1" opacity="1"/><line transform="translate(0,69)" x2="-5" y2="0" stroke="#888" stroke-width="1" opacity="1"/><line transform="translate(0,12)" x2="-5" y2="0" stroke="#888" stroke-width="1" opacity="1"/></g><g class="mark-text role-axis-label" pointer-events="none"><text text-anchor="end" transform="translate(-7,303)" font-family="sans-serif" font-size="10px" fill="#000" opacity="1">0</text><text text-anchor="end" transform="translate(-7,245.30769230769232)" font-family="sans-serif" font-size="10px" fill="#000" opacity="1">50</text><text text-anchor="end" transform="translate(-7,187.6153846153846)" font-family="sans-serif" font-size="10px" fill="#000" opacity="1">100</text><text text-anchor="end" transform="translate(-7,129.92307692307693)" font-family="sans-serif" font-size="10px" fill="#000" opacity="1">150</text><text text-anchor="end" transform="translate(-7,72.23076923076921)" font-family="sans-serif" font-size="10px" fill="#000" opacity="1">200</text><text text-anchor="end" transform="translate(-7,14.538461538461531)" font-family="sans-serif" font-size="10px" fill="#000" opacity="1">250</text></g><g class="mark-rule role-axis-domain" pointer-events="none"><line transform="translate(0,300)" x2="0" y2="-300" stroke="#888" stroke-width="1" opacity="1"/></g><g class="mark-text role-axis-title" pointer-events="none"><text text-anchor="middle" transform="translate(-27.700000762939453,150) rotate(-90) translate(0,-2)" font-family="sans-serif" font-size="11px" font-weight="bold" fill="#000" opacity="1">Count of Records</text></g></g><path class="foreground" aria-hidden="true" d="" pointer-events="none" display="none"/></g></g><g class="mark-rect role-mark concat_0_marks" role="graphics-symbol" aria-roledescription="rect mark container"><path d="M47.666666666666664,263.0769230769231h10.666666666666664v36.923076923076906h-10.666666666666664Z" fill="#4c78a8"/><path d="M1,1.1538461538461497h10.666666666666666v298.84615384615387h-10.666666666666666Z" fill="#4c78a8"/><path d="M12.666666666666666,38.07692307692307h10.666666666666666v261.9230769230769h-10.666666666666666Z" fill="#4c78a8"/><path d="M36,237.69230769230768h10.666666666666664v62.30769230769232h-10.666666666666664Z" fill="#4c78a8"/><path d="M24.333333333333332,238.84615384615387h10.666666666666668v61.15384615384613h-10.666666666666668Z" fill="#4c78a8"/><path d="M59.33333333333333,282.6923076923077h10.666666666666671v17.30769230769232h-10.666666666666671Z" fill="#4c78a8"/><path d="M71,290.7692307692308h10.666666666666671v9.230769230769226h-10.666666666666671Z" fill="#4c78a8"/><path d="M152.66666666666669,298.84615384615387h10.666666666666657v1.153846153846132h-10.666666666666657Z" fill="#4c78a8"/><path d="M327.6666666666667,297.6923076923077h10.666666666666629v2.307692307692321h-10.666666666666629Z" fill="#4c78a8"/><path d="M537.6666666666667,298.84615384615387h10.666666666666629v1.153846153846132h-10.666666666666629Z" fill="#4c78a8"/><path d="M117.66666666666666,298.84615384615387h10.666666666666657v1.153846153846132h-10.666666666666657Z" fill="#4c78a8"/><path d="M362.6666666666667,298.84615384615387h10.666666666666629v1.153846153846132h-10.666666666666629Z" fill="#4c78a8"/><path d="M106,295.3846153846154h10.666666666666657v4.615384615384585h-10.666666666666657Z" fill="#4c78a8"/><path d="M281,297.6923076923077h10.666666666666686v2.307692307692321h-10.666666666666686Z" fill="#4c78a8"/><path d="M129.33333333333331,298.84615384615387h10.666666666666686v1.153846153846132h-10.666666666666686Z" fill="#4c78a8"/><path d="M199.33333333333331,297.6923076923077h10.666666666666686v2.307692307692321h-10.666666666666686Z" fill="#4c78a8"/><path d="M269.33333333333337,298.84615384615387h10.666666666666629v1.153846153846132h-10.666666666666629Z" fill="#4c78a8"/><path d="M467.66666666666663,297.6923076923077h10.666666666666742v2.307692307692321h-10.666666666666742Z" fill="#4c78a8"/><path d="M94.33333333333333,298.84615384615387h10.666666666666671v1.153846153846132h-10.666666666666671Z" fill="#4c78a8"/><path d="M176,296.53846153846155h10.666666666666657v3.461538461538453h-10.666666666666657Z" fill="#4c78a8"/><path d="M82.66666666666667,294.2307692307692h10.666666666666657v5.769230769230774h-10.666666666666657Z" fill="#4c78a8"/><path d="M304.33333333333337,298.84615384615387h10.666666666666629v1.153846153846132h-10.666666666666629Z" fill="#4c78a8"/><path d="M421,298.84615384615387h10.666666666666686v1.153846153846132h-10.666666666666686Z" fill="#4c78a8"/><path d="M526,297.6923076923077h10.666666666666742v2.307692307692321h-10.666666666666742Z" fill="#4c78a8"/><path d="M479.33333333333337,298.84615384615387h10.666666666666572v1.153846153846132h-10.666666666666572Z" fill="#4c78a8"/><path d="M222.66666666666666,298.84615384615387h10.666666666666657v1.153846153846132h-10.666666666666657Z" fill="#4c78a8"/><path d="M502.6666666666667,297.6923076923077h10.666666666666572v2.307692307692321h-10.666666666666572Z" fill="#4c78a8"/><path d="M141,297.6923076923077h10.666666666666686v2.307692307692321h-10.666666666666686Z" fill="#4c78a8"/><path d="M164.33333333333334,298.84615384615387h10.666666666666657v1.153846153846132h-10.666666666666657Z" fill="#4c78a8"/><path d="M432.6666666666667,298.84615384615387h10.666666666666629v1.153846153846132h-10.666666666666629Z" fill="#4c78a8"/><path d="M514.3333333333333,298.84615384615387h10.666666666666742v1.153846153846132h-10.666666666666742Z" fill="#4c78a8"/><path d="M245.99999999999997,298.84615384615387h10.666666666666657v1.153846153846132h-10.666666666666657Z" fill="#4c78a8"/><path d="M386.00000000000006,298.84615384615387h10.666666666666572v1.153846153846132h-10.666666666666572Z" fill="#4c78a8"/><path d="M490.99999999999994,298.84615384615387h10.666666666666742v1.153846153846132h-10.666666666666742Z" fill="#4c78a8"/></g><g class="mark-group role-title"><g transform="translate(350,-17)"><path class="background" aria-hidden="true" d="M0,0h0v0h0Z" pointer-events="none"/><g><g class="mark-text role-title-text" role="graphics-symbol" aria-roledescription="title" aria-label="Title text 'in playlist: duration (in seconds)'" pointer-events="none"><text text-anchor="middle" transform="translate(0,10)" font-family="sans-serif" font-size="13px" font-weight="bold" fill="#000" opacity="1">in playlist: duration (in seconds)</text></g></g><path class="foreground" aria-hidden="true" d="" pointer-events="none" display="none"/></g></g></g><path class="foreground" aria-hidden="true" d="" display="none"/></g></g><g class="mark-group role-scope concat_1_group" role="graphics-object" aria-roledescription="group mark container"><g transform="translate(0,371)"><path class="background" aria-hidden="true" d="M0.5,0.5h700v300h-700Z" stroke="#ddd"/><g><g class="mark-group role-axis" role="graphics-symbol" aria-roledescription="axis" aria-label="Y-axis for a linear scale with values from 0 to 260"><g transform="translate(0.5,0.5)"><path class="background" aria-hidden="true" d="M0,0h0v0h0Z" pointer-events="none"/><g><g class="mark-rule role-axis-grid" pointer-events="none"><line transform="translate(0,300)" x2="700" y2="0" stroke="#ddd" stroke-width="1" opacity="1"/><line transform="translate(0,242)" x2="700" y2="0" stroke="#ddd" stroke-width="1" opacity="1"/><line transform="translate(0,185)" x2="700" y2="0" stroke="#ddd" stroke-width="1" opacity="1"/><line transform="translate(0,127)" x2="700" y2="0" stroke="#ddd" stroke-width="1" opacity="1"/><line transform="translate(0,69)" x2="700" y2="0" stroke="#ddd" stroke-width="1" opacity="1"/><line transform="translate(0,12)" x2="700" y2="0" stroke="#ddd" stroke-width="1" opacity="1"/></g></g><path class="foreground" aria-hidden="true" d="" pointer-events="none" display="none"/></g></g><g class="mark-group role-axis" role="graphics-symbol" aria-roledescription="axis" aria-label="X-axis titled 'duration (binned)' for a linear scale with values from 0 to 6,000"><g transform="translate(0.5,300.5)"><path class="background" aria-hidden="true" d="M0,0h0v0h0Z" pointer-events="none"/><g><g class="mark-rule role-axis-tick" pointer-events="none"><line transform="translate(0,0)" x2="0" y2="5" stroke="#888" stroke-width="1" opacity="1"/><line transform="translate(12,0)" x2="0" y2="5" stroke="#888" stroke-width="1" opacity="1"/><line transform="translate(23,0)" x2="0" y2="5" stroke="#888" stroke-width="1" opacity="1"/><line transform="translate(35,0)" x2="0" y2="5" stroke="#888" stroke-width="1" opacity="1"/><line transform="translate(47,0)" x2="0" y2="5" stroke="#888" stroke-width="1" opacity="1"/><line transform="translate(58,0)" x2="0" y2="5" stroke="#888" stroke-width="1" opacity="1"/><line transform="translate(70,0)" x2="0" y2="5" stroke="#888" stroke-width="1" opacity="1"/><line transform="translate(82,0)" x2="0" y2="5" stroke="#888" stroke-width="1" opacity="1"/><line transform="translate(93,0)" x2="0" y2="5" stroke="#888" stroke-width="1" opacity="1"/><line transform="translate(105,0)" x2="0" y2="5" stroke="#888" stroke-width="1" opacity="1"/><line transform="translate(117,0)" x2="0" y2="5" stroke="#888" stroke-width="1" opacity="1"/><line transform="translate(128,0)" x2="0" y2="5" stroke="#888" stroke-width="1" opacity="1"/><line transform="translate(140,0)" x2="0" y2="5" stroke="#888" stroke-width="1" opacity="1"/><line transform="translate(152,0)" x2="0" y2="5" stroke="#888" stroke-width="1" opacity="1"/><line transform="translate(163,0)" x2="0" y2="5" stroke="#888" stroke-width="1" opacity="1"/><line transform="translate(175,0)" x2="0" y2="5" stroke="#888" stroke-width="1" opacity="1"/><line transform="translate(187,0)" x2="0" y2="5" stroke="#888" stroke-width="1" opacity="1"/><line transform="translate(198,0)" x2="0" y2="5" stroke="#888" stroke-width="1" opacity="1"/><line transform="translate(210,0)" x2="0" y2="5" stroke="#888" stroke-width="1" opacity="1"/><line transform="translate(222,0)" x2="0" y2="5" stroke="#888" stroke-width="1" opacity="1"/><line transform="translate(233,0)" x2="0" y2="5" stroke="#888" stroke-width="1" opacity="1"/><line transform="translate(245,0)" x2="0" y2="5" stroke="#888" stroke-width="1" opacity="1"/><line transform="translate(257,0)" x2="0" y2="5" stroke="#888" stroke-width="1" opacity="1"/><line transform="translate(268,0)" x2="0" y2="5" stroke="#888" stroke-width="1" opacity="1"/><line transform="translate(280,0)" x2="0" y2="5" stroke="#888" stroke-width="1" opacity="1"/><line transform="translate(292,0)" x2="0" y2="5" stroke="#888" stroke-width="1" opacity="1"/><line transform="translate(303,0)" x2="0" y2="5" stroke="#888" stroke-width="1" opacity="1"/><line transform="translate(315,0)" x2="0" y2="5" stroke="#888" stroke-width="1" opacity="1"/><line transform="translate(327,0)" x2="0" y2="5" stroke="#888" stroke-width="1" opacity="1"/><line transform="translate(338,0)" x2="0" y2="5" stroke="#888" stroke-width="1" opacity="1"/><line transform="translate(350,0)" x2="0" y2="5" stroke="#888" stroke-width="1" opacity="1"/><line transform="translate(362,0)" x2="0" y2="5" stroke="#888" stroke-width="1" opacity="1"/><line transform="translate(373,0)" x2="0" y2="5" stroke="#888" stroke-width="1" opacity="1"/><line transform="translate(385,0)" x2="0" y2="5" stroke="#888" stroke-width="1" opacity="1"/><line transform="translate(397,0)" x2="0" y2="5" stroke="#888" stroke-width="1" opacity="1"/><line transform="translate(408,0)" x2="0" y2="5" stroke="#888" stroke-width="1" opacity="1"/><line transform="translate(420,0)" x2="0" y2="5" stroke="#888" stroke-width="1" opacity="1"/><line transform="translate(432,0)" x2="0" y2="5" stroke="#888" stroke-width="1" opacity="1"/><line transform="translate(443,0)" x2="0" y2="5" stroke="#888" stroke-width="1" opacity="1"/><line transform="translate(455,0)" x2="0" y2="5" stroke="#888" stroke-width="1" opacity="1"/><line transform="translate(467,0)" x2="0" y2="5" stroke="#888" stroke-width="1" opacity="1"/><line transform="translate(478,0)" x2="0" y2="5" stroke="#888" stroke-width="1" opacity="1"/><line transform="translate(490,0)" x2="0" y2="5" stroke="#888" stroke-width="1" opacity="1"/><line transform="translate(502,0)" x2="0" y2="5" stroke="#888" stroke-width="1" opacity="1"/><line transform="translate(513,0)" x2="0" y2="5" stroke="#888" stroke-width="1" opacity="1"/><line transform="translate(525,0)" x2="0" y2="5" stroke="#888" stroke-width="1" opacity="1"/><line transform="translate(537,0)" x2="0" y2="5" stroke="#888" stroke-width="1" opacity="1"/><line transform="translate(548,0)" x2="0" y2="5" stroke="#888" stroke-width="1" opacity="1"/><line transform="translate(560,0)" x2="0" y2="5" stroke="#888" stroke-width="1" opacity="1"/><line transform="translate(572,0)" x2="0" y2="5" stroke="#888" stroke-width="1" opacity="1"/><line transform="translate(583,0)" x2="0" y2="5" stroke="#888" stroke-width="1" opacity="1"/><line transform="translate(595,0)" x2="0" y2="5" stroke="#888" stroke-width="1" opacity="1"/><line transform="translate(607,0)" x2="0" y2="5" stroke="#888" stroke-width="1" opacity="1"/><line transform="translate(618,0)" x2="0" y2="5" stroke="#888" stroke-width="1" opacity="1"/><line transform="translate(630,0)" x2="0" y2="5" stroke="#888" stroke-width="1" opacity="1"/><line transform="translate(642,0)" x2="0" y2="5" stroke="#888" stroke-width="1" opacity="1"/><line transform="translate(653,0)" x2="0" y2="5" stroke="#888" stroke-width="1" opacity="1"/><line transform="translate(665,0)" x2="0" y2="5" stroke="#888" stroke-width="1" opacity="1"/><line transform="translate(677,0)" x2="0" y2="5" stroke="#888" stroke-width="1" opacity="1"/><line transform="translate(688,0)" x2="0" y2="5" stroke="#888" stroke-width="1" opacity="1"/><line transform="translate(700,0)" x2="0" y2="5" stroke="#888" stroke-width="1" opacity="1"/></g><g class="mark-text role-axis-label" pointer-events="none"><text text-anchor="start" transform="translate(0,15)" font-family="sans-serif" font-size="10px" fill="#000" opacity="1">0</text><text text-anchor="middle" transform="translate(11.666666666666666,15)" font-family="sans-serif" font-size="10px" fill="#000" opacity="0">100</text><text text-anchor="middle" transform="translate(23.333333333333332,15)" font-family="sans-serif" font-size="10px" fill="#000" opacity="0">200</text><text text-anchor="middle" transform="translate(35,15)" font-family="sans-serif" font-size="10px" fill="#000" opacity="0">300</text><text text-anchor="middle" transform="translate(46.666666666666664,15)" font-family="sans-serif" font-size="10px" fill="#000" opacity="1">400</text><text text-anchor="middle" transform="translate(58.33333333333333,15)" font-family="sans-serif" font-size="10px" fill="#000" opacity="0">500</text><text text-anchor="middle" transform="translate(70,15)" font-family="sans-serif" font-size="10px" fill="#000" opacity="0">600</text><text text-anchor="middle" transform="translate(81.66666666666667,15)" font-family="sans-serif" font-size="10px" fill="#000" opacity="0">700</text><text text-anchor="middle" transform="translate(93.33333333333333,15)" font-family="sans-serif" font-size="10px" fill="#000" opacity="1">800</text><text text-anchor="middle" transform="translate(105,15)" font-family="sans-serif" font-size="10px" fill="#000" opacity="0">900</text><text text-anchor="middle" transform="translate(116.66666666666666,15)" font-family="sans-serif" font-size="10px" fill="#000" opacity="0">1,000</text><text text-anchor="middle" transform="translate(128.33333333333331,15)" font-family="sans-serif" font-size="10px" fill="#000" opacity="0">1,100</text><text text-anchor="middle" transform="translate(140,15)" font-family="sans-serif" font-size="10px" fill="#000" opacity="1">1,200</text><text text-anchor="middle" transform="translate(151.66666666666669,15)" font-family="sans-serif" font-size="10px" fill="#000" opacity="0">1,300</text><text text-anchor="middle" transform="translate(163.33333333333334,15)" font-family="sans-serif" font-size="10px" fill="#000" opacity="0">1,400</text><text text-anchor="middle" transform="translate(175,15)" font-family="sans-serif" font-size="10px" fill="#000" opacity="0">1,500</text><text text-anchor="middle" transform="translate(186.66666666666666,15)" font-family="sans-serif" font-size="10px" fill="#000" opacity="1">1,600</text><text text-anchor="middle" transform="translate(198.33333333333331,15)" font-family="sans-serif" font-size="10px" fill="#000" opacity="0">1,700</text><text text-anchor="middle" transform="translate(210,15)" font-family="sans-serif" font-size="10px" fill="#000" opacity="0">1,800</text><text text-anchor="middle" transform="translate(221.66666666666666,15)" font-family="sans-serif" font-size="10px" fill="#000" opacity="0">1,900</text><text text-anchor="middle" transform="translate(233.33333333333331,15)" font-family="sans-serif" font-size="10px" fill="#000" opacity="1">2,000</text><text text-anchor="middle" transform="translate(244.99999999999997,15)" font-family="sans-serif" font-size="10px" fill="#000" opacity="0">2,100</text><text text-anchor="middle" transform="translate(256.66666666666663,15)" font-family="sans-serif" font-size="10px" fill="#000" opacity="0">2,200</text><text text-anchor="middle" transform="translate(268.33333333333337,15)" font-family="sans-serif" font-size="10px" fill="#000" opacity="0">2,300</text><text text-anchor="middle" transform="translate(280,15)" font-family="sans-serif" font-size="10px" fill="#000" opacity="1">2,400</text><text text-anchor="middle" transform="translate(291.6666666666667,15)" font-family="sans-serif" font-size="10px" fill="#000" opacity="0">2,500</text><text text-anchor="middle" transform="translate(303.33333333333337,15)" font-family="sans-serif" font-size="10px" fill="#000" opacity="0">2,600</text><text text-anchor="middle" transform="translate(315,15)" font-family="sans-serif" font-size="10px" fill="#000" opacity="0">2,700</text><text text-anchor="middle" transform="translate(326.6666666666667,15)" font-family="sans-serif" font-size="10px" fill="#000" opacity="1">2,800</text><text text-anchor="middle" transform="translate(338.3333333333333,15)" font-family="sans-serif" font-size="10px" fill="#000" opacity="0">2,900</text><text text-anchor="middle" transform="translate(350,15)" font-family="sans-serif" font-size="10px" fill="#000" opacity="0">3,000</text><text text-anchor="middle" transform="translate(361.6666666666667,15)" font-family="sans-serif" font-size="10px" fill="#000" opacity="0">3,100</text><text text-anchor="middle" transform="translate(373.3333333333333,15)" font-family="sans-serif" font-size="10px" fill="#000" opacity="1">3,200</text><text text-anchor="middle" transform="translate(385.00000000000006,15)" font-family="sans-serif" font-size="10px" fill="#000" opacity="0">3,300</text><text text-anchor="middle" transform="translate(396.66666666666663,15)" font-family="sans-serif" font-size="10px" fill="#000" opacity="0">3,400</text><text text-anchor="middle" transform="translate(408.33333333333337,15)" font-family="sans-serif" font-size="10px" fill="#000" opacity="0">3,500</text><text text-anchor="middle" transform="translate(420,15)" font-family="sans-serif" font-size="10px" fill="#000" opacity="1">3,600</text><text text-anchor="middle" transform="translate(431.6666666666667,15)" font-family="sans-serif" font-size="10px" fill="#000" opacity="0">3,700</text><text text-anchor="middle" transform="translate(443.3333333333333,15)" font-family="sans-serif" font-size="10px" fill="#000" opacity="0">3,800</text><text text-anchor="middle" transform="translate(455,15)" font-family="sans-serif" font-size="10px" fill="#000" opacity="0">3,900</text><text text-anchor="middle" transform="translate(466.66666666666663,15)" font-family="sans-serif" font-size="10px" fill="#000" opacity="1">4,000</text><text text-anchor="middle" transform="translate(478.33333333333337,15)" font-family="sans-serif" font-size="10px" fill="#000" opacity="0">4,100</text><text text-anchor="middle" transform="translate(489.99999999999994,15)" font-family="sans-serif" font-size="10px" fill="#000" opacity="0">4,200</text><text text-anchor="middle" transform="translate(501.6666666666667,15)" font-family="sans-serif" font-size="10px" fill="#000" opacity="0">4,300</text><text text-anchor="middle" transform="translate(513.3333333333333,15)" font-family="sans-serif" font-size="10px" fill="#000" opacity="1">4,400</text><text text-anchor="middle" transform="translate(525,15)" font-family="sans-serif" font-size="10px" fill="#000" opacity="0">4,500</text><text text-anchor="middle" transform="translate(536.6666666666667,15)" font-family="sans-serif" font-size="10px" fill="#000" opacity="0">4,600</text><text text-anchor="middle" transform="translate(548.3333333333334,15)" font-family="sans-serif" font-size="10px" fill="#000" opacity="0">4,700</text><text text-anchor="middle" transform="translate(560,15)" font-family="sans-serif" font-size="10px" fill="#000" opacity="1">4,800</text><text text-anchor="middle" transform="translate(571.6666666666666,15)" font-family="sans-serif" font-size="10px" fill="#000" opacity="0">4,900</text><text text-anchor="middle" transform="translate(583.3333333333334,15)" font-family="sans-serif" font-size="10px" fill="#000" opacity="0">5,000</text><text text-anchor="middle" transform="translate(595,15)" font-family="sans-serif" font-size="10px" fill="#000" opacity="0">5,100</text><text text-anchor="middle" transform="translate(606.6666666666667,15)" font-family="sans-serif" font-size="10px" fill="#000" opacity="1">5,200</text><text text-anchor="middle" transform="translate(618.3333333333333,15)" font-family="sans-serif" font-size="10px" fill="#000" opacity="0">5,300</text><text text-anchor="middle" transform="translate(630,15)" font-family="sans-serif" font-size="10px" fill="#000" opacity="0">5,400</text><text text-anchor="middle" transform="translate(641.6666666666666,15)" font-family="sans-serif" font-size="10px" fill="#000" opacity="0">5,500</text><text text-anchor="middle" transform="translate(653.3333333333334,15)" font-family="sans-serif" font-size="10px" fill="#000" opacity="1">5,600</text><text text-anchor="middle" transform="translate(665,15)" font-family="sans-serif" font-size="10px" fill="#000" opacity="0">5,700</text><text text-anchor="middle" transform="translate(676.6666666666666,15)" font-family="sans-serif" font-size="10px" fill="#000" opacity="0">5,800</text><text text-anchor="middle" transform="translate(688.3333333333333,15)" font-family="sans-serif" font-size="10px" fill="#000" opacity="0">5,900</text><text text-anchor="end" transform="translate(700,15)" font-family="sans-serif" font-size="10px" fill="#000" opacity="1">6,000</text></g><g class="mark-rule role-axis-domain" pointer-events="none"><line transform="translate(0,0)" x2="700" y2="0" stroke="#888" stroke-width="1" opacity="1"/></g><g class="mark-text role-axis-title" pointer-events="none"><text text-anchor="middle" transform="translate(350,30)" font-family="sans-serif" font-size="11px" font-weight="bold" fill="#000" opacity="1">duration (binned)</text></g></g><path class="foreground" aria-hidden="true" d="" pointer-events="none" display="none"/></g></g><g class="mark-group role-axis" role="graphics-symbol" aria-roledescription="axis" aria-label="Y-axis titled 'Count of Records' for a linear scale with values from 0 to 260"><g transform="translate(0.5,0.5)"><path class="background" aria-hidden="true" d="M0,0h0v0h0Z" pointer-events="none"/><g><g class="mark-rule role-axis-tick" pointer-events="none"><line transform="translate(0,300)" x2="-5" y2="0" stroke="#888" stroke-width="1" opacity="1"/><line transform="translate(0,242)" x2="-5" y2="0" stroke="#888" stroke-width="1" opacity="1"/><line transform="translate(0,185)" x2="-5" y2="0" stroke="#888" stroke-width="1" opacity="1"/><line transform="translate(0,127)" x2="-5" y2="0" stroke="#888" stroke-width="1" opacity="1"/><line transform="translate(0,69)" x2="-5" y2="0" stroke="#888" stroke-width="1" opacity="1"/><line transform="translate(0,12)" x2="-5" y2="0" stroke="#888" stroke-width="1" opacity="1"/></g><g class="mark-text role-axis-label" pointer-events="none"><text text-anchor="end" transform="translate(-7,303)" font-family="sans-serif" font-size="10px" fill="#000" opacity="1">0</text><text text-anchor="end" transform="translate(-7,245.30769230769232)" font-family="sans-serif" font-size="10px" fill="#000" opacity="1">50</text><text text-anchor="end" transform="translate(-7,187.6153846153846)" font-family="sans-serif" font-size="10px" fill="#000" opacity="1">100</text><text text-anchor="end" transform="translate(-7,129.92307692307693)" font-family="sans-serif" font-size="10px" fill="#000" opacity="1">150</text><text text-anchor="end" transform="translate(-7,72.23076923076921)" font-family="sans-serif" font-size="10px" fill="#000" opacity="1">200</text><text text-anchor="end" transform="translate(-7,14.538461538461531)" font-family="sans-serif" font-size="10px" fill="#000" opacity="1">250</text></g><g class="mark-rule role-axis-domain" pointer-events="none"><line transform="translate(0,300)" x2="0" y2="-300" stroke="#888" stroke-width="1" opacity="1"/></g><g class="mark-text role-axis-title" pointer-events="none"><text text-anchor="middle" transform="translate(-27.700000762939453,150) rotate(-90) translate(0,-2)" font-family="sans-serif" font-size="11px" font-weight="bold" fill="#000" opacity="1">Count of Records</text></g></g><path class="foreground" aria-hidden="true" d="" pointer-events="none" display="none"/></g></g><g class="mark-rect role-mark concat_1_marks" role="graphics-symbol" aria-roledescription="rect mark container"><path d="M36,188.07692307692307h10.666666666666664v111.92307692307693h-10.666666666666664Z" fill="#4c78a8"/><path d="M47.666666666666664,255h10.666666666666664v45h-10.666666666666664Z" fill="#4c78a8"/><path d="M1,105h10.666666666666666v195h-10.666666666666666Z" fill="#4c78a8"/><path d="M24.333333333333332,166.15384615384616h10.666666666666668v133.84615384615384h-10.666666666666668Z" fill="#4c78a8"/><path d="M362.6666666666667,297.6923076923077h10.666666666666629v2.307692307692321h-10.666666666666629Z" fill="#4c78a8"/><path d="M12.666666666666666,11.538461538461531h10.666666666666666v288.46153846153845h-10.666666666666666Z" fill="#4c78a8"/><path d="M82.66666666666667,291.9230769230769h10.666666666666657v8.076923076923094h-10.666666666666657Z" fill="#4c78a8"/><path d="M572.6666666666666,298.84615384615387h10.666666666666742v1.153846153846132h-10.666666666666742Z" fill="#4c78a8"/><path d="M59.33333333333333,280.3846153846154h10.666666666666671v19.615384615384585h-10.666666666666671Z" fill="#4c78a8"/><path d="M304.33333333333337,295.3846153846154h10.666666666666629v4.615384615384585h-10.666666666666629Z" fill="#4c78a8"/><path d="M327.6666666666667,290.7692307692308h10.666666666666629v9.230769230769226h-10.666666666666629Z" fill="#4c78a8"/><path d="M176,298.84615384615387h10.666666666666657v1.153846153846132h-10.666666666666657Z" fill="#4c78a8"/><path d="M211,298.84615384615387h10.666666666666657v1.153846153846132h-10.666666666666657Z" fill="#4c78a8"/><path d="M71,296.53846153846155h10.666666666666671v3.461538461538453h-10.666666666666671Z" fill="#4c78a8"/><path d="M677.6666666666666,298.84615384615387h10.666666666666629v1.153846153846132h-10.666666666666629Z" fill="#4c78a8"/><path d="M631,298.84615384615387h10.666666666666629v1.153846153846132h-10.666666666666629Z" fill="#4c78a8"/><path d="M526,298.84615384615387h10.666666666666742v1.153846153846132h-10.666666666666742Z" fill="#4c78a8"/><path d="M409.33333333333337,297.6923076923077h10.666666666666629v2.307692307692321h-10.666666666666629Z" fill="#4c78a8"/><path d="M421,296.53846153846155h10.666666666666686v3.461538461538453h-10.666666666666686Z" fill="#4c78a8"/><path d="M94.33333333333333,297.6923076923077h10.666666666666671v2.307692307692321h-10.666666666666671Z" fill="#4c78a8"/><path d="M689.3333333333333,298.84615384615387h10.666666666666742v1.153846153846132h-10.666666666666742Z" fill="#4c78a8"/><path d="M129.33333333333331,298.84615384615387h10.666666666666686v1.153846153846132h-10.666666666666686Z" fill="#4c78a8"/><path d="M199.33333333333331,297.6923076923077h10.666666666666686v2.307692307692321h-10.666666666666686Z" fill="#4c78a8"/><path d="M596,298.84615384615387h10.666666666666742v1.153846153846132h-10.666666666666742Z" fill="#4c78a8"/><path d="M117.66666666666666,298.84615384615387h10.666666666666657v1.153846153846132h-10.666666666666657Z" fill="#4c78a8"/><path d="M490.99999999999994,298.84615384615387h10.666666666666742v1.153846153846132h-10.666666666666742Z" fill="#4c78a8"/><path d="M514.3333333333333,298.84615384615387h10.666666666666742v1.153846153846132h-10.666666666666742Z" fill="#4c78a8"/><path d="M245.99999999999997,298.84615384615387h10.666666666666657v1.153846153846132h-10.666666666666657Z" fill="#4c78a8"/><path d="M502.6666666666667,298.84615384615387h10.666666666666572v1.153846153846132h-10.666666666666572Z" fill="#4c78a8"/><path d="M292.6666666666667,297.6923076923077h10.666666666666686v2.307692307692321h-10.666666666666686Z" fill="#4c78a8"/><path d="M141,298.84615384615387h10.666666666666686v1.153846153846132h-10.666666666666686Z" fill="#4c78a8"/><path d="M339.3333333333333,298.84615384615387h10.666666666666686v1.153846153846132h-10.666666666666686Z" fill="#4c78a8"/><path d="M666,297.6923076923077h10.666666666666629v2.307692307692321h-10.666666666666629Z" fill="#4c78a8"/><path d="M164.33333333333334,298.84615384615387h10.666666666666657v1.153846153846132h-10.666666666666657Z" fill="#4c78a8"/><path d="M316,297.6923076923077h10.666666666666686v2.307692307692321h-10.666666666666686Z" fill="#4c78a8"/><path d="M152.66666666666669,298.84615384615387h10.666666666666657v1.153846153846132h-10.666666666666657Z" fill="#4c78a8"/><path d="M234.33333333333331,298.84615384615387h10.666666666666657v1.153846153846132h-10.666666666666657Z" fill="#4c78a8"/><path d="M432.6666666666667,298.84615384615387h10.666666666666629v1.153846153846132h-10.666666666666629Z" fill="#4c78a8"/><path d="M456,298.84615384615387h10.666666666666629v1.153846153846132h-10.666666666666629Z" fill="#4c78a8"/></g><g class="mark-group role-title"><g transform="translate(350,-17)"><path class="background" aria-hidden="true" d="M0,0h0v0h0Z" pointer-events="none"/><g><g class="mark-text role-title-text" role="graphics-symbol" aria-roledescription="title" aria-label="Title text 'not in playlist: duration (in seconds)'" pointer-events="none"><text text-anchor="middle" transform="translate(0,10)" font-family="sans-serif" font-size="13px" font-weight="bold" fill="#000" opacity="1">not in playlist: duration (in seconds)</text></g></g><path class="foreground" aria-hidden="true" d="" pointer-events="none" display="none"/></g></g></g><path class="foreground" aria-hidden="true" d="" display="none"/></g></g></g><path class="foreground" aria-hidden="true" d="" display="none"/></g></g></g></svg>